<svg width="26" height="26" viewBox="0 0 26 26" fill="none" xmlns="http://www.w3.org/2000/svg">
<g id="Copy 1">
<g id="surface13468">
<path id="Vector" d="M4.33329 2.16667C3.13605 2.16667 2.16663 3.1361 2.16663 4.33334V18.4167C2.16663 19.0148 2.65187 19.5 3.24996 19.5C3.84805 19.5 4.33329 19.0148 4.33329 18.4167V4.33334H18.4166C19.0147 4.33334 19.5 3.8481 19.5 3.25001C19.5 2.65191 19.0147 2.16667 18.4166 2.16667H4.33329ZM8.66663 6.5C7.46939 6.5 6.49996 7.46943 6.49996 8.66667V21.6667C6.49996 22.8639 7.46939 23.8333 8.66663 23.8333H21.6666C22.8639 23.8333 23.8333 22.8639 23.8333 21.6667V8.66667C23.8333 7.46943 22.8639 6.5 21.6666 6.5H8.66663ZM8.66663 8.66667H21.6666V21.6667H8.66663V8.66667Z" fill="#00AD07"/>
</g>
</g>
</svg>
