<svg width="26" height="26" viewBox="0 0 26 26" fill="none" xmlns="http://www.w3.org/2000/svg">
<g id="Qr Code 1">
<g id="surface15679">
<path id="Vector" d="M5.6875 22.75C4.3512 22.75 3.25 21.6488 3.25 20.3125V16.5208C3.25 15.1845 4.3512 14.0833 5.6875 14.0833H9.47917C10.8155 14.0833 11.9167 15.1845 11.9167 16.5208V20.3125C11.9167 21.6488 10.8155 22.75 9.47917 22.75H5.6875ZM16.5208 22.75C15.1845 22.75 14.0833 21.6488 14.0833 20.3125V16.5208C14.0833 15.1845 15.1845 14.0833 16.5208 14.0833H20.3125C21.6488 14.0833 22.75 15.1845 22.75 16.5208V20.3125C22.75 21.6488 21.6488 22.75 20.3125 22.75H16.5208ZM5.6875 21.125H9.47917C9.93808 21.125 10.2917 20.7714 10.2917 20.3125V16.5208C10.2917 16.0619 9.93808 15.7083 9.47917 15.7083H5.6875C5.22859 15.7083 4.875 16.0619 4.875 16.5208V20.3125C4.875 20.7714 5.22859 21.125 5.6875 21.125ZM16.5208 21.125H20.3125C20.7714 21.125 21.125 20.7714 21.125 20.3125V16.5208C21.125 16.0619 20.7714 15.7083 20.3125 15.7083H16.5208C16.0619 15.7083 15.7083 16.0619 15.7083 16.5208V20.3125C15.7083 20.7714 16.0619 21.125 16.5208 21.125ZM6.5 19.5V17.3333H8.66667V19.5H6.5ZM17.3333 19.5V17.3333H19.5V19.5H17.3333ZM5.6875 11.9167C4.3512 11.9167 3.25 10.8155 3.25 9.47917V5.6875C3.25 4.3512 4.3512 3.25 5.6875 3.25H9.47917C10.8155 3.25 11.9167 4.3512 11.9167 5.6875V9.47917C11.9167 10.8155 10.8155 11.9167 9.47917 11.9167H5.6875ZM14.0833 11.9167V8.9375H17.0625V11.9167H14.0833ZM17.0625 8.9375V6.22917H19.7708V8.9375H17.0625ZM19.7708 8.9375H22.75V11.9167H19.7708V8.9375ZM19.7708 6.22917V3.25H22.75V6.22917H19.7708ZM17.0625 6.22917H14.0833V3.25H17.0625V6.22917ZM5.6875 10.2917H9.47917C9.93808 10.2917 10.2917 9.93808 10.2917 9.47917V5.6875C10.2917 5.22859 9.93808 4.875 9.47917 4.875H5.6875C5.22859 4.875 4.875 5.22859 4.875 5.6875V9.47917C4.875 9.93808 5.22859 10.2917 5.6875 10.2917ZM6.5 8.66667V6.5H8.66667V8.66667H6.5Z" fill="#EBEBEB"/>
</g>
</g>
</svg>
