<svg width="26" height="26" viewBox="0 0 26 26" fill="none" xmlns="http://www.w3.org/2000/svg">
<path d="M25.2686 21.5264L14.3713 2.362C14.0859 1.86014 13.5737 1.56006 13.0001 1.56006C12.4265 1.56006 11.9143 1.86014 11.6289 2.362L0.7316 21.5264C0.44533 22.0305 0.448309 22.6309 0.739996 23.1322C1.02708 23.6257 1.53625 23.9201 2.10283 23.9201H23.8973C24.4639 23.9201 24.9731 23.6257 25.2602 23.1322C25.5519 22.6309 25.5548 22.031 25.2686 21.5264ZM14.0401 20.2801C14.0401 20.5671 13.8082 20.8001 13.5212 20.8001C13.2029 20.8001 12.7972 20.8001 12.479 20.8001C12.1919 20.8001 11.9601 20.5671 11.9601 20.2801V19.2401C11.9601 18.953 12.1919 18.7201 12.479 18.7201C12.7972 18.7201 13.2029 18.7201 13.5206 18.7201C13.8082 18.7201 14.0401 18.953 14.0401 19.2401V20.2801ZM14.0401 16.6401C14.0401 16.9271 13.8072 17.1601 13.5201 17.1601C13.2019 17.1601 12.7961 17.1601 12.4785 17.1601C12.1908 17.1601 11.9601 16.9271 11.9601 16.6401V9.36006C11.9601 9.07297 12.1919 8.84006 12.479 8.84006C12.7972 8.84006 13.2029 8.84006 13.5206 8.84006C13.8082 8.84006 14.0401 9.07297 14.0401 9.36006V16.6401Z" fill="#DC4040"/>
</svg>
