<svg width="26" height="26" viewBox="0 0 26 26" fill="none" xmlns="http://www.w3.org/2000/svg">
<path d="M25.2686 21.5264L14.3713 2.36194C14.0859 1.86008 13.5737 1.56 13.0001 1.56C12.4265 1.56 11.9143 1.86008 11.6289 2.36194L0.7316 21.5264C0.44533 22.0304 0.448309 22.6308 0.739996 23.1321C1.02708 23.6256 1.53625 23.92 2.10283 23.92H23.8973C24.4639 23.92 24.9731 23.6256 25.2602 23.1321C25.5519 22.6308 25.5548 22.0309 25.2686 21.5264ZM14.0401 20.28C14.0401 20.5671 13.8082 20.8 13.5212 20.8C13.2029 20.8 12.7972 20.8 12.479 20.8C12.1919 20.8 11.9601 20.5671 11.9601 20.28V19.24C11.9601 18.9529 12.1919 18.72 12.479 18.72C12.7972 18.72 13.2029 18.72 13.5206 18.72C13.8082 18.72 14.0401 18.9529 14.0401 19.24V20.28ZM14.0401 16.64C14.0401 16.9271 13.8072 17.16 13.5201 17.16C13.2019 17.16 12.7961 17.16 12.4785 17.16C12.1908 17.16 11.9601 16.9271 11.9601 16.64V9.36C11.9601 9.07291 12.1919 8.84 12.479 8.84C12.7972 8.84 13.2029 8.84 13.5206 8.84C13.8082 8.84 14.0401 9.07291 14.0401 9.36V16.64Z" fill="#FFBC00"/>
</svg>
