<svg width="16" height="16" viewBox="0 0 16 16" fill="none" xmlns="http://www.w3.org/2000/svg">
<path d="M7.99961 1.60001C4.46523 1.60001 1.59961 4.46563 1.59961 8.00001C1.59961 11.5344 4.46523 14.4 7.99961 14.4C11.534 14.4 14.3996 11.5344 14.3996 8.00001C14.3996 4.46563 11.534 1.60001 7.99961 1.60001ZM11.5767 6.77709L7.54475 10.809C7.4444 10.9094 7.30898 10.9653 7.16767 10.9653C7.02635 10.9653 6.89023 10.9094 6.79058 10.809L4.94892 8.96754C4.74041 8.75886 4.74041 8.42188 4.94892 8.21337C5.15742 8.00487 5.49457 8.00487 5.70308 8.21337L7.16767 9.67796L10.8225 6.02292C11.031 5.81442 11.3682 5.81442 11.5767 6.02292C11.7852 6.23143 11.7852 6.56858 11.5767 6.77709Z" fill="#3EC745"/>
</svg>
