<svg width="137" height="132" viewBox="0 0 137 132" fill="none" xmlns="http://www.w3.org/2000/svg">
<path d="M1 132V21.7374C1.00037 16.2376 3.45482 10.9631 7.82348 7.0742C12.1921 3.18526 18.1172 1.00033 24.2954 1H112.703C118.882 1 124.807 3.18479 129.176 7.07376C133.545 10.9627 136 16.2374 136 21.7374V132" stroke="#65656E" stroke-miterlimit="10"/>
<path d="M117.966 20.1651H20.6739C18.1368 20.1651 16.0801 22.2187 16.0801 24.7519V43.4959C16.0801 46.0291 18.1368 48.0826 20.6739 48.0826H117.966C120.503 48.0826 122.56 46.0291 122.56 43.4959V24.7519C122.56 22.2187 120.503 20.1651 117.966 20.1651Z" stroke="#65656E" stroke-width="1.03" stroke-miterlimit="10"/>
<path d="M117.966 57.4715H20.6739C18.1368 57.4715 16.0801 59.5251 16.0801 62.0583V80.8023C16.0801 83.3355 18.1368 85.3891 20.6739 85.3891H117.966C120.503 85.3891 122.56 83.3355 122.56 80.8023V62.0583C122.56 59.5251 120.503 57.4715 117.966 57.4715Z" stroke="#65656E" stroke-width="1.03" stroke-miterlimit="10"/>
<path d="M117.966 94.778H20.6739C18.1368 94.778 16.0801 96.8315 16.0801 99.3647V118.109C16.0801 120.642 18.1368 122.695 20.6739 122.695H117.966C120.503 122.695 122.56 120.642 122.56 118.109V99.3647C122.56 96.8315 120.503 94.778 117.966 94.778Z" stroke="#65656E" stroke-width="1.03" stroke-miterlimit="10"/>
<path d="M44.7568 34.1239H97.7126" stroke="#65656E" stroke-width="1.03" stroke-miterlimit="10" stroke-linecap="round"/>
<path d="M44.7568 108.737H97.7126" stroke="#65656E" stroke-width="1.03" stroke-miterlimit="10" stroke-linecap="round"/>
<path d="M44.7568 72.7523H97.7126" stroke="#65656E" stroke-width="1.03" stroke-miterlimit="10" stroke-linecap="round"/>
<path d="M35.8768 35.5599C35.8768 35.7604 35.9566 35.9527 36.0985 36.0945C36.2405 36.2362 36.4331 36.3159 36.634 36.3159C36.8348 36.3159 37.0274 36.2362 37.1694 36.0945C37.3114 35.9527 37.3911 35.7604 37.3911 35.5599V30.265C37.3913 30.2154 37.3871 30.1659 37.3784 30.1171C37.3731 30.0952 37.3665 30.0736 37.3587 30.0524L37.3347 29.9764C37.3237 29.9513 37.3105 29.9273 37.2952 29.9046C37.2867 29.884 37.2763 29.8642 37.2642 29.8454C37.2086 29.7625 37.1372 29.6912 37.0541 29.6357C37.036 29.6241 37.0172 29.6138 36.9977 29.6047C36.974 29.5894 36.949 29.5762 36.923 29.5653C36.8984 29.555 36.8729 29.547 36.8469 29.5413C36.8257 29.5413 36.8032 29.5259 36.782 29.5216C36.7331 29.513 36.6836 29.5088 36.634 29.509H31.3309C31.1301 29.509 30.9375 29.5886 30.7955 29.7304C30.6535 29.8722 30.5737 30.0645 30.5737 30.265C30.5737 30.4655 30.6535 30.6578 30.7955 30.7996C30.9375 30.9413 31.1301 31.021 31.3309 31.021H34.8052L28.2317 38.0025C28.0896 38.1444 28.0098 38.3368 28.0098 38.5375C28.0098 38.7381 28.0896 38.9306 28.2317 39.0724C28.3738 39.2143 28.5665 39.294 28.7675 39.294C28.9685 39.294 29.1612 39.2143 29.3033 39.0724L35.8768 32.0909V35.5599Z" fill="#65656E"/>
<path d="M35.8768 109.894C35.8768 110.094 35.9566 110.287 36.0985 110.429C36.2405 110.57 36.4331 110.65 36.634 110.65C36.8348 110.65 37.0274 110.57 37.1694 110.429C37.3114 110.287 37.3911 110.094 37.3911 109.894V104.6C37.3913 104.551 37.3871 104.501 37.3784 104.453C37.3731 104.431 37.3665 104.409 37.3587 104.388L37.3347 104.312C37.3237 104.287 37.3105 104.263 37.2952 104.24C37.2867 104.219 37.2763 104.2 37.2642 104.181C37.2086 104.098 37.1372 104.027 37.0541 103.971C37.036 103.96 37.0172 103.949 36.9977 103.94C36.974 103.925 36.949 103.912 36.923 103.901C36.8984 103.891 36.8729 103.883 36.8469 103.877C36.8257 103.877 36.8032 103.861 36.782 103.857C36.7331 103.849 36.6836 103.844 36.634 103.844H31.3309C31.1301 103.844 30.9375 103.924 30.7955 104.066C30.6535 104.208 30.5737 104.4 30.5737 104.6C30.5737 104.801 30.6535 104.993 30.7955 105.135C30.9375 105.277 31.1301 105.356 31.3309 105.356H34.8052L28.2317 112.338C28.1613 112.408 28.1055 112.492 28.0674 112.583C28.0294 112.675 28.0098 112.774 28.0098 112.873C28.0098 112.972 28.0294 113.071 28.0674 113.162C28.1055 113.254 28.1613 113.338 28.2317 113.408C28.3021 113.478 28.3856 113.534 28.4775 113.572C28.5695 113.61 28.668 113.63 28.7675 113.63C28.867 113.63 28.9656 113.61 29.0575 113.572C29.1494 113.534 29.2329 113.478 29.3033 113.408L35.8768 106.426V109.894Z" fill="#65656E"/>
<path d="M29.5261 71.5936C29.5261 71.3931 29.4463 71.2008 29.3043 71.059C29.1623 70.9173 28.9697 70.8376 28.7689 70.8376C28.5681 70.8376 28.3755 70.9173 28.2335 71.059C28.0915 71.2008 28.0117 71.3931 28.0117 71.5936V76.8843C28.0115 76.9338 28.0158 76.9833 28.0244 77.0321C28.0297 77.0541 28.0363 77.0757 28.0442 77.0969L28.0681 77.1729C28.0791 77.1979 28.0923 77.222 28.1076 77.2447C28.1162 77.2653 28.1265 77.2851 28.1386 77.3038C28.1943 77.3868 28.2656 77.458 28.3487 77.5136C28.3668 77.5251 28.3857 77.5355 28.4051 77.5446C28.4288 77.5599 28.4538 77.5731 28.4798 77.584C28.5045 77.5942 28.5299 77.6022 28.556 77.6079C28.5771 77.6079 28.5997 77.6234 28.6209 77.6276C28.6697 77.6362 28.7193 77.6405 28.7689 77.6403H34.0719C34.2728 77.6403 34.4654 77.5606 34.6074 77.4189C34.7494 77.2771 34.8291 77.0848 34.8291 76.8843C34.8291 76.6838 34.7494 76.4915 34.6074 76.3497C34.4654 76.2079 34.2728 76.1283 34.0719 76.1283H30.5977L37.1712 69.1468C37.2415 69.0765 37.2973 68.9931 37.3354 68.9013C37.3735 68.8095 37.3931 68.7112 37.3931 68.6118C37.3931 68.5124 37.3735 68.4141 37.3354 68.3223C37.2973 68.2305 37.2415 68.1471 37.1712 68.0768C37.1008 68.0066 37.0173 67.9508 36.9253 67.9128C36.8334 67.8748 36.7349 67.8552 36.6353 67.8552C36.5358 67.8552 36.4373 67.8748 36.3454 67.9128C36.2534 67.9508 36.1699 68.0066 36.0995 68.0768L29.5261 75.0583V71.5936Z" fill="#65656E"/>
</svg>
