<svg width="16" height="16" viewBox="0 0 16 16" fill="none" xmlns="http://www.w3.org/2000/svg">
<path d="M7.99967 1.33333C4.3176 1.33333 1.33301 4.31792 1.33301 7.99999C1.33301 11.6821 4.3176 14.6667 7.99967 14.6667C11.6817 14.6667 14.6663 11.6821 14.6663 7.99999C14.6663 4.31792 11.6817 1.33333 7.99967 1.33333ZM9.72363 10.6667L7.52832 8.47135C7.4031 8.34591 7.33301 8.17664 7.33301 7.99999V4.66666C7.33301 4.29861 7.63162 3.99999 7.99967 3.99999C8.36773 3.99999 8.66634 4.29861 8.66634 4.66666V7.72395L10.6663 9.72395C10.9263 9.98394 10.9263 10.4067 10.6663 10.6667C10.4064 10.9266 9.98362 10.9266 9.72363 10.6667Z" fill="#AFAFBE"/>
</svg>
